Coordinates
version=1
nRows=13
nColumns=36
inDegrees=yes

Units are S.I. units (second, meters, Newtons, ...)
If the header above contains a line with 'inDegrees', this indicates whether rotational values are in degrees (yes) or radians (no).

endheader
time	pelvis_tilt	pelvis_list	pelvis_rotation	pelvis_tx	pelvis_ty	pelvis_tz	hip_flexion_r	hip_adduction_r	hip_rotation_r	knee_angle_r	knee_angle_r_beta	ankle_angle_r	subtalar_angle_r	mtp_angle_r	hip_flexion_l	hip_adduction_l	hip_rotation_l	knee_angle_l	knee_angle_l_beta	ankle_angle_l	subtalar_angle_l	mtp_angle_l	lumbar_extension	lumbar_bending	lumbar_rotation	arm_flex_r	arm_add_r	arm_rot_r	elbow_flex_r	pro_sup_r	arm_flex_l	arm_add_l	arm_rot_l	elbow_flex_l	pro_sup_l
      5.85000000	     -8.29926793	     -1.98618981	      6.21368702	      0.67257886	      0.90681218	      0.19652180	      8.35009001	      0.10314941	     -5.84955336	     11.00806487	      0.19212698	     10.79285047	    -19.96850605	     -7.49999987	      8.13116812	     -7.00918985	     13.92838255	      3.63421963	      0.06342910	      9.09817979	     -8.08210984	     -7.49999987	     -3.76031941	      2.40059291	      0.97216967	    -10.57589345	    -11.40279000	      3.89775243	     81.39645197	     91.64322003	     15.52767032	     -8.04053344	     38.82306684	     84.37007138	     91.16584017
      5.86666670	     -7.96537853	     -2.06821869	      6.11589096	      0.67517236	      0.90916936	      0.19347447	      7.23443349	      0.11302309	     -5.82577922	     10.01156513	      0.17473477	     10.53020792	    -19.75693708	     -7.49999987	      7.13753577	     -7.05883574	     13.61253270	      2.85105215	      0.04976025	      9.01022224	     -7.81503821	     -7.49999987	     -3.31319740	      2.53461041	      0.83060457	    -11.71402483	    -10.79193277	      3.40192199	     80.55458689	     90.48853708	     14.61362247	     -8.19540312	     38.79405363	     84.61119635	     90.09281022
      5.88333330	     -7.50951985	     -2.13075560	      6.17292119	      0.67468562	      0.91140082	      0.19335565	      5.90831987	      0.15806024	     -6.03935324	      8.68761026	      0.15162740	     10.38213317	    -19.26527770	     -7.49999987	      6.30248557	     -7.01412532	     13.71221722	      2.24134236	      0.03911880	      8.98412845	     -7.62660276	     -7.49999987	     -3.19807767	      2.61435639	      0.27354321	    -12.67280988	     -9.36710589	      1.72924900	     79.48666616	     89.28872358	     13.63580264	     -8.51740953	     38.16938086	     85.07639043	     89.06683362
      5.90000000	     -7.19827132	     -2.16690419	      6.12077004	      0.67730666	      0.91181742	      0.19048093	      4.71673482	      0.19414058	     -6.04854188	      7.27801201	      0.12702527	     10.08155066	    -18.76069051	     -7.49999987	      5.54014139	     -7.01521056	     13.50329112	      1.68769838	      0.02945589	      8.86104160	     -7.07449674	     -7.49999987	     -2.98300550	      2.71734247	     -0.01182780	    -13.72117286	     -8.49138055	      0.87599832	     78.89823847	     85.88138961	     12.98739227	     -8.82907898	     37.89539435	     85.21914607	     85.81274991
      5.91666670	     -7.15058955	     -2.26179937	      6.10060327	      0.67321379	      0.91006693	      0.18790085	      3.91697946	      0.25197099	     -6.13205056	      5.81677727	      0.10152192	      9.73534787	    -18.41815978	     -7.49999987	      5.32493382	     -6.97068332	     13.65044042	      1.41719267	      0.02473468	      8.72282947	     -7.28240282	     -7.49999987	     -2.53288596	      2.85643222	     -0.29334290	    -14.36160133	     -7.71227880	     -0.22989300	     78.38099619	     86.72923869	     12.57959847	     -9.02651484	     37.46168407	     85.07425867	     86.81103747
      5.93333330	     -7.12676291	     -2.31283266	      5.92671343	      0.67618787	      0.90728532	      0.18550964	      3.34610149	      0.26564085	     -6.03935965	      4.77519928	      0.08334295	      9.48867160	    -18.05768626	     -7.49999987	      5.12158559	     -6.90747968	     13.65635593	      1.23032575	      0.02147324	      8.75826634	     -7.27913408	     -7.49999987	     -2.14564277	      2.89285735	     -0.19035820	    -14.83931569	     -7.61149000	     -0.23419976	     77.97388124	     86.87514794	     12.14356265	     -9.35993165	     37.53223405	     84.99357432	     86.99686470
      5.95000000	     -6.91431360	     -2.39725585	      5.72182830	      0.67185583	      0.90870993	      0.18344238	      2.78919872	      0.29840968	     -6.27809921	      3.92075664	      0.06843011	      9.16986031	    -17.55785947	     -7.49999987	      4.78376512	     -6.89023798	     13.71341765	      1.00283431	      0.01750276	      8.78071616	     -7.23951936	     -7.49999987	     -2.12231989	      2.99510474	     -0.25206589	    -14.94416947	     -7.23453471	     -0.38150588	     76.73822753	     87.34313654	     11.99865622	     -9.78856842	     37.47123242	     84.47959604	     87.64371496
      5.96666670	     -6.74274522	     -2.47967797	      5.42262583	      0.67603796	      0.90641906	      0.18602622	      2.25087590	      0.42193301	     -6.23325358	      3.11477857	      0.05436314	      8.97989356	    -17.10269928	     -7.49999987	      4.50469591	     -6.93598958	     13.63399618	      0.90221569	      0.01574663	      8.75757836	     -7.37842102	     -7.49999987	     -2.02142636	      3.02382291	     -0.58684283	    -15.07574755	     -6.87663254	     -0.18732552	     76.05862032	     90.74678121	     11.43759030	    -10.52921414	     36.64076711	     84.67124761	     92.32932924
      5.98333330	     -6.69716277	     -2.56849161	      5.23979439	      0.67610419	      0.90691215	      0.18637169	      1.86225637	      0.56612339	     -6.38454441	      2.44119088	      0.04260682	      8.90322293	    -16.43992743	     -7.49999987	      4.35334070	     -7.04189620	     13.72228035	      0.83658635	      0.01460119	      8.53553648	     -7.73137625	     -7.49999987	     -1.70692427	      2.98317733	     -0.48101452	    -15.29016201	     -6.56471085	      0.18826583	     75.30102076	     89.87887915	     11.18125626	    -11.51573781	     36.96763036	     84.78669655	     91.55856476
      6.00000000	     -6.66960816	     -2.50864280	      4.89762319	      0.67420497	      0.91102939	      0.18149606	      1.62292183	      0.43259838	     -6.46128083	      2.02513225	      0.03534523	      8.63933434	    -16.13783292	     -7.49999987	      4.25836442	     -6.90886411	     13.55946340	      0.81628885	      0.01424693	      8.46605981	     -7.83024586	     -7.49999987	     -1.52570498	      2.91960574	     -0.17009525	    -15.47390441	     -6.37757173	      0.30222878	     75.06080652	     89.89167954	     10.80845280	    -12.18626667	     36.99425074	     84.76895899	     91.57409396
      6.01666670	     -6.63185256	     -2.38721962	      4.62442931	      0.67450720	      0.90967774	      0.18214850	      1.31585774	      0.27007225	     -6.55022318	      1.55635078	      0.02716345	      8.84590437	    -15.17356279	     -7.49999987	      4.15011850	     -6.72013000	     13.57196852	      0.76628298	      0.01337416	      8.30871797	     -8.11875421	     -7.49999987	     -1.38302887	      2.70047443	     -0.68025151	    -14.96297131	     -6.16782343	      1.03480573	     74.08112225	     90.18792830	      9.70955461	    -13.18746564	     36.22402806	     85.87511949	     92.08173328
      6.03333330	     -6.65331022	     -2.36996630	      4.38064041	      0.67467381	      0.90798634	      0.18220611	      1.15885960	      0.20353292	     -6.52354362	      1.25544587	      0.02191166	      8.84751911	    -14.79162246	     -7.49999987	      4.11438815	     -6.66548645	     13.47335528	      0.73704174	      0.01286381	      8.18502310	     -8.24617950	     -7.49999987	     -1.20543341	      2.63838682	     -0.67476913	    -15.39656499	     -5.71696094	      0.73156167	     74.32752973	     90.31672709	      8.88750593	    -13.99677112	     36.02733044	     86.30500837	     91.98766978
      6.05000000	     -6.61180783	     -2.36857899	      4.16733011	      0.67463760	      0.90750044	      0.18213359	      0.99554537	      0.18812070	     -6.66316632	      1.01565239	      0.01772648	      9.02139377	    -14.15191381	     -7.49999987	      4.02502629	     -6.63662624	     13.29380677	      0.75228665	      0.01312988	      8.00187741	     -8.34955265	     -7.49999987	     -1.05318829	      2.52040968	     -0.69863048	    -15.61510986	     -5.45354233	      0.65566040	     74.91822491	     90.27136158	      7.81765452	    -14.85732617	     35.62570571	     87.20746135	     91.85202208
